<svg xmlns="http://www.w3.org/2000/svg" viewBox="0 0 16 16">
  <path fill="#afb42b" d="M5 7.5a1 1 0 0 1 1-1h1a1 1 0 0 1 1 1v.938l.4 1.599a1 1 0 0 1-.416 1.074l-.93.62a1 1 0 0 1-1.11 0l-.929-.62a1 1 0 0 1-.415-1.074L5 8.438zm2 0H6v.938a1 1 0 0 1-.03.243l-.4 1.598.93.62.929-.62-.4-1.598A1 1 0 0 1 7 8.438z"/>
  <path fill="#afb42b" d="M14 4.5V14a2 2 0 0 1-2 2H4a2 2 0 0 1-2-2V2a2 2 0 0 1 2-2h5.5zm-3 0A1.5 1.5 0 0 1 9.5 3V1h-2v1h-1v1h1v1h-1v1h1v1H6V5H5V4h1V3H5V2h1V1H4a1 1 0 0 0-1 1v12a1 1 0 0 0 1 1h8a1 1 0 0 0 1-1V4.5z"/>
  <path fill="green" d="M16 12.5a3.5 3.5 0 1 1-7 0 3.5 3.5 0 0 1 7 0m-3.5-2a.5.5 0 0 0-.5.5v1h-1a.5.5 0 0 0 0 1h1v1a.5.5 0 0 0 1 0v-1h1a.5.5 0 0 0 0-1h-1v-1a.5.5 0 0 0-.5-.5"/>
</svg>