<svg xmlns="http://www.w3.org/2000/svg" viewBox="0 0 1024 3072" width="12" height="36" fill="gray">
<defs>
	<symbol id="ui-icon-triangle-1-e" viewBox="0 0 1024 1024"><path d="M731.429 512c-0.073 5.595-2.56 10.569-6.363 13.861l-402.286 347.392c-11.849 10.203-30.208 1.792-30.208-13.861v-694.784c0-15.653 18.359-24.064 30.208-13.861l402.286 347.392c4.206 3.657 6.327 7.278 6.363 13.861z" /></symbol>
	<symbol id="ui-icon-triangle-1-w" viewBox="0 0 1024 1024"><path d="M292.571 512c0.073 5.595 2.56 10.569 6.363 13.861l402.286 347.392c11.849 10.203 30.208 1.792 30.208-13.861v-694.784c0-15.653-18.359-24.064-30.208-13.861l-402.286 347.392c-4.206 3.657-6.327 7.278-6.363 13.861z" /></symbol>
	<symbol id="ui-icon-triangle-1-s" viewBox="0 0 1024 1024"><path d="M512 292.571c5.595 0.073 10.569 2.56 13.861 6.363l347.392 402.286c10.203 11.849 1.792 30.208-13.861 30.208h-694.784c-15.653 0-24.064-18.359-13.861-30.208l347.392-402.286c3.657-4.206 7.278-6.327 13.861-6.363z" /></symbol>
</defs>
<g transform="translate(0, 960) scale(1, -1)">
	<use href="#ui-icon-triangle-1-e" x="0" y="0" width="1024" height="1024" />
	<use href="#ui-icon-triangle-1-w" x="0" y="-1024" width="1024" height="1024" />
	<use href="#ui-icon-triangle-1-s" x="0" y="-2048" width="1024" height="1024" />
</g>

</svg>