<svg xmlns="http://www.w3.org/2000/svg" viewBox="0 0 16 16">
  <path fill="lightskyblue" d="M12 2h-2v3h2z"/>
  <path fill="lightskyblue" d="M1.5 0A1.5 1.5 0 0 0 0 1.5v13A1.5 1.5 0 0 0 1.5 16h13a1.5 1.5 0 0 0 1.5-1.5V2.914a1.5 1.5 0 0 0-.44-1.06L14.147.439A1.5 1.5 0 0 0 13.086 0zM4 6a1 1 0 0 1-1-1V1h10v4a1 1 0 0 1-1 1zM3 9h10a1 1 0 0 1 1 1v5H2v-5a1 1 0 0 1 1-1"/>
  <path fill="green" d="M16 12.5a3.5 3.5 0 1 1-7 0 3.5 3.5 0 0 1 7 0m-3.5-2a.5.5 0 0 0-.5.5v1h-1a.5.5 0 0 0 0 1h1v1a.5.5 0 0 0 1 0v-1h1a.5.5 0 0 0 0-1h-1v-1a.5.5 0 0 0-.5-.5"/>
</svg>